<svg width="40" height="40" viewBox="0 0 40 40" fill="none" xmlns="http://www.w3.org/2000/svg">
<rect width="40" height="40" rx="9" fill="black"/>
<path d="M25.3848 5.01301C25.3273 4.95126 23.2542 5.03739 21.4502 6.9175C19.6462 8.79599 19.9237 10.9507 19.9644 11.006C20.005 11.0612 22.5367 11.1474 24.1528 8.96174C25.769 6.77613 25.4424 5.07639 25.3848 5.01301ZM30.9932 24.079C30.9119 23.923 27.0585 22.0738 27.4173 18.5183C27.7761 14.9612 30.2519 13.9862 30.2908 13.8806C30.3298 13.775 29.2805 12.5968 28.1687 12.0005C27.3523 11.58 26.4488 11.3391 25.5236 11.2952C25.3408 11.2904 24.7062 11.1409 23.4014 11.4837C22.5418 11.7096 20.6041 12.4408 20.071 12.4701C19.5362 12.4993 17.9454 11.6219 16.2345 11.3895C15.1396 11.1864 13.9787 11.6024 13.1477 11.9225C12.3185 12.241 10.7413 13.1477 9.63788 15.5576C8.53449 17.9658 9.11157 21.7813 9.52449 22.9675C9.93742 24.1522 10.5822 26.094 11.6788 27.511C12.6536 29.11 13.9465 30.2199 14.4863 30.5969C15.0262 30.9739 16.5493 31.2241 17.6053 30.7058C18.4548 30.2053 19.9881 29.9176 20.5939 29.9388C21.1981 29.9599 22.3894 30.189 23.6096 30.8146C24.5759 31.1348 25.4898 31.0015 26.4053 30.644C27.3208 30.2849 28.6459 28.9231 30.1927 26.1623C30.7799 24.8785 31.0473 24.1847 30.9932 24.079Z" fill="white"/>
</svg>
