<svg width="40" height="40" viewBox="0 0 40 40" fill="none" xmlns="http://www.w3.org/2000/svg">
<rect width="40" height="40" rx="9" fill="#3B5998"/>
<path d="M32 19.5766C32 12.6305 26.4038 7 19.5016 7C12.5962 7.00156 7 12.6305 7 19.5781C7 25.8539 11.5713 31.0564 17.5456 32V23.212H14.3741V19.5781H17.5487V16.805C17.5487 13.6539 19.4156 11.9134 22.27 11.9134C23.6385 11.9134 25.0681 12.1587 25.0681 12.1587V15.2521H23.4917C21.9403 15.2521 21.456 16.2223 21.456 17.2175V19.5766H24.9212L24.3681 23.2105H21.4544V31.9984C27.4287 31.0548 32 25.8523 32 19.5766Z" fill="white"/>
</svg>
