<svg width="40" height="40" viewBox="0 0 40 40" fill="none" xmlns="http://www.w3.org/2000/svg">
<rect width="40" height="40" rx="9" fill="#55ACEE"/>
<path d="M15.1672 30C24.979 30 30.3464 21.9187 30.3464 14.9228C30.3464 14.6967 30.3464 14.4673 30.3366 14.2411C31.3816 13.4892 32.2835 12.5583 33 11.4919C32.0239 11.9197 30.9895 12.2017 29.9304 12.3286C31.046 11.6658 31.8815 10.6228 32.2817 9.39364C31.2336 10.0109 30.0864 10.4442 28.8904 10.6746C28.0863 9.82334 27.0223 9.25943 25.8631 9.07019C24.704 8.88094 23.5144 9.07691 22.4787 9.62775C21.4429 10.1786 20.6188 11.0536 20.134 12.1171C19.6492 13.1807 19.5307 14.3735 19.7969 15.5108C17.6758 15.4051 15.6008 14.8573 13.7064 13.9031C11.8121 12.9489 10.1406 11.6096 8.8005 9.97191C8.12018 11.1399 7.91256 12.5215 8.2198 13.8361C8.52704 15.1508 9.32611 16.2999 10.4547 17.0502C9.609 17.0216 8.78185 16.7958 8.04 16.3911V16.4638C8.04146 17.6874 8.46787 18.8729 9.24717 19.82C10.0265 20.7671 11.1108 21.4177 12.317 21.6618C11.8592 21.7872 11.3862 21.8497 10.9114 21.8476C10.5766 21.8486 10.2425 21.8178 9.91363 21.7555C10.2545 22.8088 10.9183 23.7297 11.812 24.3892C12.7057 25.0488 13.7846 25.4139 14.8975 25.4336C13.0069 26.9096 10.6715 27.7102 8.2675 27.7063C7.8439 27.7081 7.42059 27.6838 7 27.6336C9.43996 29.1799 12.2736 30.0009 15.1672 30Z" fill="white"/>
</svg>
