<svg width="19" height="18" viewBox="0 0 19 18" fill="none" xmlns="http://www.w3.org/2000/svg">
<path d="M9.95935 0C7.51698 0 7.20985 0.01125 6.25023 0.054C5.2906 0.099 4.63698 0.24975 4.06435 0.4725C3.46371 0.698421 2.91965 1.0528 2.47023 1.51088C2.01244 1.96053 1.6581 2.50452 1.43185 3.105C1.2091 3.6765 1.05723 4.33125 1.01335 5.2875C0.970601 6.24937 0.959351 6.55538 0.959351 9.00113C0.959351 11.4446 0.970601 11.7506 1.01335 12.7103C1.05835 13.6688 1.2091 14.3224 1.43185 14.895C1.66248 15.4867 1.9696 15.9885 2.47023 16.4891C2.96973 16.9897 3.47148 17.298 4.06323 17.5275C4.63698 17.7502 5.28948 17.9021 6.24798 17.946C7.20873 17.9888 7.51473 18 9.95935 18C12.404 18 12.7089 17.9888 13.6696 17.946C14.627 17.901 15.2829 17.7502 15.8555 17.5275C16.4557 17.3015 16.9994 16.9471 17.4485 16.4891C17.9491 15.9885 18.2562 15.4867 18.4869 14.895C18.7085 14.3224 18.8603 13.6688 18.9053 12.7103C18.9481 11.7506 18.9594 11.4446 18.9594 9C18.9594 6.55538 18.9481 6.24938 18.9053 5.28863C18.8603 4.33125 18.7085 3.6765 18.4869 3.105C18.2606 2.5045 17.9063 1.96051 17.4485 1.51088C16.9992 1.05264 16.4551 0.698226 15.8544 0.4725C15.2806 0.24975 14.6259 0.097875 13.6685 0.054C12.7077 0.01125 12.4029 0 9.9571 0H9.96048H9.95935ZM9.15273 1.62225H9.96048C12.3635 1.62225 12.6481 1.63013 13.5965 1.674C14.474 1.71338 14.951 1.86075 15.2682 1.98338C15.6878 2.1465 15.9882 2.34225 16.3032 2.65725C16.6182 2.97225 16.8129 3.2715 16.976 3.69225C17.0997 4.00838 17.246 4.48538 17.2854 5.36287C17.3292 6.31125 17.3382 6.59588 17.3382 8.99775C17.3382 11.3996 17.3292 11.6854 17.2854 12.6337C17.246 13.5112 17.0986 13.9871 16.976 14.3044C16.8317 14.6952 16.6014 15.0485 16.3021 15.3383C15.9871 15.6532 15.6879 15.8479 15.2671 16.011C14.9521 16.1348 14.4751 16.281 13.5965 16.3215C12.6481 16.3643 12.3635 16.3744 9.96048 16.3744C7.55748 16.3744 7.27173 16.3643 6.32335 16.3215C5.44585 16.281 4.96998 16.1348 4.65273 16.011C4.26179 15.8669 3.90812 15.637 3.61773 15.3383C3.3182 15.048 3.08754 14.6944 2.94273 14.3032C2.8201 13.9871 2.67273 13.5101 2.63335 12.6326C2.5906 11.6842 2.5816 11.3996 2.5816 8.9955C2.5816 6.5925 2.5906 6.309 2.63335 5.36062C2.67385 4.48312 2.8201 4.00612 2.94385 3.68887C3.10698 3.26925 3.30273 2.96887 3.61773 2.65387C3.93273 2.33888 4.23198 2.14425 4.65273 1.98112C4.96998 1.85738 5.44585 1.71113 6.32335 1.67062C7.1536 1.63238 7.47535 1.62113 9.15273 1.62V1.62225ZM14.7642 3.11625C14.6224 3.11625 14.482 3.14419 14.3509 3.19846C14.2199 3.25274 14.1008 3.33229 14.0006 3.43257C13.9003 3.53286 13.8207 3.65192 13.7664 3.78295C13.7122 3.91398 13.6842 4.05442 13.6842 4.19625C13.6842 4.33808 13.7122 4.47852 13.7664 4.60955C13.8207 4.74058 13.9003 4.85964 14.0006 4.95993C14.1008 5.06021 14.2199 5.13976 14.3509 5.19404C14.482 5.24831 14.6224 5.27625 14.7642 5.27625C15.0507 5.27625 15.3254 5.16246 15.5279 4.95993C15.7304 4.75739 15.8442 4.48268 15.8442 4.19625C15.8442 3.90982 15.7304 3.63511 15.5279 3.43257C15.3254 3.23004 15.0507 3.11625 14.7642 3.11625ZM9.96048 4.3785C9.34743 4.36894 8.73861 4.48142 8.16945 4.70941C7.6003 4.9374 7.08218 5.27633 6.64527 5.70648C6.20836 6.13662 5.86139 6.64939 5.62455 7.21492C5.38771 7.78045 5.26574 8.38744 5.26574 9.00056C5.26574 9.61368 5.38771 10.2207 5.62455 10.7862C5.86139 11.3517 6.20836 11.8645 6.64527 12.2946C7.08218 12.7248 7.6003 13.0637 8.16945 13.2917C8.73861 13.5197 9.34743 13.6322 9.96048 13.6226C11.1738 13.6037 12.3311 13.1084 13.1824 12.2437C14.0338 11.3789 14.511 10.2141 14.511 9.00056C14.511 7.78706 14.0338 6.62221 13.1824 5.75747C12.3311 4.89272 11.1738 4.39743 9.96048 4.3785ZM9.96048 5.99963C10.7562 5.99963 11.5194 6.31573 12.0821 6.87841C12.6447 7.44109 12.9609 8.20425 12.9609 9C12.9609 9.79575 12.6447 10.5589 12.0821 11.1216C11.5194 11.6843 10.7562 12.0004 9.96048 12.0004C9.16473 12.0004 8.40157 11.6843 7.83889 11.1216C7.27621 10.5589 6.9601 9.79575 6.9601 9C6.9601 8.20425 7.27621 7.44109 7.83889 6.87841C8.40157 6.31573 9.16473 5.99963 9.96048 5.99963Z" fill="white" fill-opacity="0.5"/>
</svg>
