<svg width="18" height="18" viewBox="0 0 18 18" fill="none" xmlns="http://www.w3.org/2000/svg">
<path d="M5.65425 18C12.447 18 16.1629 11.0731 16.1629 5.07669C16.1629 4.88285 16.1629 4.68625 16.1561 4.49241C16.8796 3.84789 17.5039 3.04993 18 2.13592C17.3242 2.50262 16.6081 2.7443 15.8749 2.85312C16.6472 2.28495 17.2257 1.391 17.5028 0.337403C16.7771 0.86647 15.9829 1.23787 15.1549 1.43534C14.5982 0.705724 13.8616 0.222372 13.0591 0.0601592C12.2566 -0.102054 11.4331 0.0659244 10.716 0.538075C9.99895 1.01023 9.42841 1.7602 9.09276 2.67182C8.7571 3.58345 8.67508 4.60585 8.85938 5.58066C7.39096 5.49005 5.95442 5.02057 4.64292 4.20269C3.33143 3.3848 2.17427 2.23678 1.2465 0.833069C0.775508 1.83421 0.63177 3.01843 0.844477 4.14526C1.05718 5.27209 1.61039 6.25705 2.39175 6.90013C1.80623 6.87565 1.23359 6.68215 0.72 6.33524V6.39754C0.72101 7.44631 1.01622 8.46247 1.55573 9.27429C2.09525 10.0861 2.84597 10.6438 3.681 10.853C3.36405 10.9605 3.03663 11.014 2.70788 11.0122C2.47611 11.0131 2.2448 10.9867 2.01712 10.9333C2.25313 11.8361 2.71268 12.6254 3.3314 13.1908C3.95012 13.7561 4.69703 14.0691 5.4675 14.0859C4.15862 15.3511 2.54183 16.0373 0.8775 16.034C0.584236 16.0355 0.291176 16.0147 0 15.9716C1.6892 17.297 3.65096 18.0008 5.65425 18Z" fill="white" fill-opacity="0.5"/>
</svg>
